<?xml version="1.0" standalone="no"?>
<!DOCTYPE svg PUBLIC "-//W3C//DTD SVG 20010904//EN"
 "http://www.w3.org/TR/2001/REC-SVG-20010904/DTD/svg10.dtd">
<svg version="1.0" xmlns="http://www.w3.org/2000/svg"
 width="960.000000pt" height="960.000000pt" viewBox="0 0 960.000000 960.000000"
 preserveAspectRatio="xMidYMid meet">
<metadata>
Created by potrace 1.11, written by Peter Selinger 2001-2013
</metadata>
<g transform="translate(0.000000,960.000000) scale(0.100000,-0.100000)"
fill="#000000" stroke="none">
<path d="M4559 9253 c-280 -468 -269 -448 -254 -464 7 -8 64 -102 128 -209 63
-107 127 -215 141 -240 15 -25 29 -53 33 -62 3 -10 9 -18 14 -18 5 0 9 -4 9
-9 0 -4 95 -170 211 -367 117 -198 220 -372 229 -389 9 -16 51 -88 93 -158 43
-71 77 -131 77 -132 0 -2 14 -24 30 -48 17 -25 30 -47 30 -50 0 -4 13 -25 29
-49 15 -24 41 -65 56 -93 15 -27 36 -62 46 -77 11 -14 19 -31 19 -37 0 -6 4
-11 8 -11 4 0 13 -12 20 -27 6 -16 21 -41 32 -58 11 -16 23 -38 26 -47 4 -10
10 -18 15 -18 5 0 9 -5 9 -10 0 -6 12 -29 27 -53 15 -23 27 -45 28 -49 0 -4 8
-17 18 -28 9 -11 17 -22 17 -24 0 -3 73 -125 161 -273 89 -147 175 -293 192
-323 17 -30 34 -59 39 -65 5 -5 59 -95 121 -198 62 -104 122 -205 135 -225 13
-20 25 -45 29 -54 3 -10 9 -18 14 -18 5 0 9 -4 9 -9 0 -9 133 -238 169 -291
10 -14 48 -78 87 -143 38 -65 79 -135 92 -155 13 -20 25 -45 29 -54 3 -10 9
-18 14 -18 5 0 9 -4 9 -10 0 -5 16 -34 35 -64 19 -30 35 -57 35 -60 0 -3 11
-22 25 -43 14 -20 53 -94 87 -163 33 -69 66 -136 73 -150 27 -53 100 -282 120
-373 2 -10 6 -26 9 -35 3 -9 8 -37 11 -62 4 -24 8 -47 10 -50 2 -3 6 -30 10
-60 3 -30 9 -68 13 -85 15 -71 5 -554 -13 -645 -6 -29 -13 -67 -20 -112 -3
-18 -8 -41 -11 -50 -3 -9 -6 -25 -8 -35 -18 -90 -87 -295 -148 -433 -28 -63
-54 -119 -58 -125 -4 -5 -24 -41 -45 -80 -100 -186 -256 -387 -435 -563 -112
-110 -325 -271 -440 -333 -25 -13 -47 -27 -50 -30 -14 -17 -304 -149 -385
-175 -41 -13 -183 -56 -195 -59 -8 -2 -35 -8 -60 -14 -25 -7 -61 -14 -80 -17
-19 -2 -43 -7 -52 -10 -9 -3 -65 -11 -125 -19 -104 -13 -494 -14 -553 -2 -14
3 -47 9 -75 12 -27 4 -60 9 -72 11 -13 2 -33 6 -45 8 -13 2 -54 11 -93 21 -38
9 -77 18 -85 20 -34 8 -209 68 -270 93 -73 29 -271 128 -340 169 -46 27 -201
132 -210 142 -3 4 -23 19 -45 36 -63 47 -93 73 -200 180 -113 113 -140 143
-210 235 -28 36 -53 66 -57 68 -5 2 -8 8 -8 14 0 5 -11 24 -25 42 -14 18 -25
38 -25 44 0 6 -4 12 -8 14 -10 4 -82 125 -82 139 0 5 -3 9 -8 9 -8 0 -52 91
-52 109 0 6 -4 11 -10 11 -5 0 -10 5 -10 10 0 6 -9 29 -19 53 -39 87 -111 285
-112 312 0 2 -5 19 -11 37 -5 18 -11 43 -13 55 -2 12 -8 37 -13 55 -6 18 -14
56 -18 83 -4 28 -8 55 -10 60 -32 147 -37 525 -8 715 15 105 48 253 79 357 41
138 39 130 54 168 6 17 21 55 33 85 37 95 180 363 262 490 13 19 137 226 276
460 139 234 260 436 268 450 59 93 202 335 202 342 0 4 4 8 10 8 5 0 9 3 8 8
-1 4 5 18 14 32 8 14 60 99 114 190 54 91 101 167 106 168 4 2 8 12 8 22 0 10
4 20 9 22 4 2 19 22 32 45 115 200 111 195 131 173 10 -10 18 -21 18 -24 0 -3
32 -60 71 -128 40 -67 80 -136 89 -153 9 -16 31 -54 49 -83 17 -29 31 -55 31
-58 0 -3 14 -25 30 -49 17 -24 30 -46 30 -48 0 -5 160 -283 188 -327 9 -14 15
-28 14 -32 -1 -5 3 -8 8 -8 6 0 10 -4 10 -9 0 -5 37 -71 81 -147 45 -77 89
-152 97 -169 9 -16 32 -57 51 -90 20 -33 42 -69 48 -80 7 -11 25 -44 40 -72
15 -29 31 -53 35 -53 4 0 8 -4 8 -9 0 -9 115 -215 140 -251 6 -8 13 -23 16
-32 4 -10 10 -18 15 -18 5 0 9 -4 9 -9 0 -5 32 -64 70 -131 39 -67 70 -126 70
-130 0 -5 4 -10 8 -12 5 -1 15 -15 23 -30 13 -24 100 -181 202 -363 22 -38 40
-74 41 -80 1 -5 6 -17 11 -25 10 -16 58 -112 59 -120 1 -3 17 -41 35 -85 69
-164 177 -508 197 -630 3 -16 7 -37 8 -45 1 -8 6 -28 9 -45 9 -38 22 -146 32
-260 11 -113 4 -395 -11 -475 -2 -14 -6 -43 -9 -65 -24 -190 -111 -486 -199
-677 -28 -61 -35 -93 -13 -66 6 9 34 32 60 52 26 19 54 41 61 48 7 7 33 29 57
48 80 65 273 264 349 360 91 115 140 185 140 199 0 5 8 15 18 20 9 6 13 11 8
11 -5 0 -2 8 6 18 41 47 160 314 184 412 2 8 10 43 18 77 9 34 18 77 21 95 3
18 7 44 10 58 15 79 22 343 11 425 -3 17 -7 52 -10 79 -5 43 -16 108 -30 184
-9 42 -37 147 -62 229 -14 46 -25 86 -25 90 0 5 -7 18 -14 30 -8 12 -17 30
-19 40 -4 22 -8 34 -64 163 -63 149 -188 398 -254 505 -10 17 -25 44 -33 60
-9 17 -24 44 -35 60 -10 17 -25 41 -33 55 -16 28 -56 99 -99 174 -15 28 -33
58 -38 66 -16 25 -72 123 -98 170 -14 25 -48 86 -77 135 -29 50 -62 106 -73
125 -17 31 -53 93 -115 200 -11 19 -31 55 -45 80 -14 25 -33 57 -43 72 -11 14
-19 28 -19 31 0 3 -27 51 -60 107 -34 56 -69 116 -78 133 -21 39 -99 173 -121
207 -8 14 -16 27 -16 30 -1 6 -62 109 -87 148 -10 15 -21 34 -24 42 -4 8 -45
79 -91 157 -45 78 -83 147 -83 152 0 6 -4 11 -8 11 -4 0 -15 15 -23 33 -9 17
-62 111 -118 207 -57 96 -130 222 -163 280 -34 58 -72 122 -84 142 -13 21 -24
40 -24 42 0 3 -20 39 -45 79 -25 41 -45 80 -45 86 0 6 -4 11 -10 11 -5 0 -10
4 -10 9 0 12 -173 305 -182 309 -5 2 -8 10 -8 19 0 8 -9 27 -19 42 -11 14 -30
48 -44 74 l-25 47 -74 -123 c-40 -67 -74 -128 -76 -134 -2 -7 -8 -13 -13 -13
-5 0 -9 -4 -9 -9 0 -5 -51 -94 -113 -197 -62 -104 -133 -223 -157 -264 -24
-41 -50 -81 -57 -88 -7 -7 -13 -17 -13 -22 0 -4 -18 -37 -40 -71 -22 -35 -45
-75 -51 -89 -5 -13 -13 -27 -17 -30 -11 -8 -31 -42 -43 -72 -6 -16 -15 -28
-20 -28 -5 0 -9 -4 -9 -9 0 -5 -43 -80 -96 -167 -53 -88 -106 -177 -119 -199
-12 -22 -102 -173 -200 -335 -98 -162 -183 -304 -189 -315 -25 -43 -82 -138
-98 -163 -10 -15 -21 -34 -25 -42 -4 -8 -62 -107 -130 -218 -68 -112 -123
-208 -123 -213 0 -5 -4 -9 -10 -9 -5 0 -10 -4 -10 -9 0 -5 -17 -37 -37 -71
-21 -34 -46 -76 -57 -93 -10 -18 -68 -115 -129 -217 -97 -162 -274 -490 -268
-498 1 -1 -7 -23 -18 -48 -20 -44 -112 -309 -112 -321 0 -2 -5 -17 -10 -35
-26 -83 -46 -167 -41 -172 3 -4 1 -6 -4 -6 -5 0 -10 -8 -10 -17 -1 -17 -7 -58
-19 -113 -2 -13 -7 -40 -10 -60 -3 -20 -7 -45 -9 -55 -21 -113 -29 -237 -30
-470 -1 -188 7 -352 19 -415 2 -10 6 -39 10 -66 3 -27 7 -56 9 -64 8 -40 16
-87 20 -110 2 -14 9 -45 16 -70 7 -25 14 -54 15 -65 2 -11 8 -35 13 -53 6 -18
11 -36 11 -40 0 -4 15 -52 33 -107 17 -55 32 -102 33 -105 2 -11 47 -127 60
-157 8 -17 15 -34 15 -37 0 -4 18 -43 39 -89 21 -45 42 -89 45 -97 3 -8 19
-37 34 -65 16 -27 41 -73 56 -102 15 -28 34 -57 42 -64 8 -6 14 -16 14 -21 0
-7 124 -198 152 -233 158 -200 175 -220 319 -364 113 -114 190 -183 279 -251
25 -19 47 -37 50 -40 4 -5 155 -111 200 -140 8 -5 35 -23 60 -40 25 -16 49
-30 53 -30 5 0 21 -8 35 -19 54 -37 229 -124 377 -186 229 -96 549 -184 765
-210 25 -3 54 -8 65 -10 130 -26 655 -27 790 -1 11 2 47 7 80 12 33 4 62 8 65
9 6 2 100 18 120 20 8 1 22 5 30 8 28 10 155 38 161 35 3 -2 13 3 22 11 10 7
17 11 17 8 0 -3 26 3 58 14 31 11 64 22 72 24 21 5 149 50 185 65 17 7 39 16
50 20 66 26 352 172 423 217 46 29 88 53 92 53 5 0 10 3 12 8 2 4 39 31 83 61
44 30 82 57 85 60 3 3 25 22 50 41 25 19 47 38 48 42 2 4 8 8 13 8 20 0 329
301 415 405 27 33 54 65 59 71 6 6 19 23 30 38 17 24 54 74 82 111 110 145
279 452 355 645 16 41 35 89 43 105 11 25 60 175 69 210 2 6 6 17 9 25 6 14
35 126 42 160 24 118 55 286 60 325 3 28 8 66 10 85 17 132 22 444 10 590 -9
114 -29 271 -41 330 -3 14 -7 39 -10 55 -3 17 -10 48 -15 70 -5 22 -12 49 -14
60 -6 32 -13 60 -15 63 -2 1 -3 10 -5 20 -1 9 -4 24 -7 32 -3 8 -20 60 -37
115 -58 180 -175 463 -222 535 -5 8 -15 26 -22 40 -19 40 -120 212 -227 389
-55 91 -100 166 -100 167 0 1 -22 39 -50 83 -27 44 -50 83 -50 86 0 3 -5 11
-11 18 -16 19 -109 179 -109 189 0 4 -4 8 -10 8 -5 0 -10 5 -10 10 0 6 -12 29
-27 53 -15 23 -33 51 -39 62 -6 11 -87 146 -179 300 -92 154 -173 289 -179
300 -6 11 -21 35 -34 53 -13 17 -20 32 -16 32 4 0 0 8 -8 18 -8 9 -32 46 -54
82 -21 36 -45 74 -51 85 -7 11 -18 32 -25 48 -7 15 -16 27 -20 27 -4 0 -8 4
-8 9 0 5 -18 38 -40 72 -22 35 -51 84 -65 109 -14 25 -35 61 -48 81 -12 20
-46 78 -76 130 -30 52 -58 96 -63 97 -4 2 -8 8 -8 13 0 7 -25 50 -77 134 -7
11 -22 36 -33 55 -11 19 -26 44 -33 55 -17 28 -55 91 -76 128 -10 18 -64 109
-121 202 -57 94 -110 184 -120 200 -9 17 -112 188 -229 382 -116 194 -211 356
-211 362 0 5 -3 11 -8 13 -10 4 -112 175 -112 187 0 5 -4 11 -8 13 -5 2 -25
32 -46 68 -20 36 -58 99 -83 140 -46 76 -53 87 -133 223 -25 42 -48 77 -52 77
-4 0 -98 -152 -209 -337z"/>
</g>
</svg>
