<svg xmlns="http://www.w3.org/2000/svg" width="25" height="12" viewBox="0 0 25 12">
  <path fill="#2D63E0" fill-rule="evenodd" d="M2,0 L23,0 C24.1045695,-2.02906125e-16 25,0.8954305 25,2 L25,10 C25,11.1045695 24.1045695,12 23,12 L2,12 C0.8954305,12 1.3527075e-16,11.1045695 0,10 L0,2 C-1.3527075e-16,0.8954305 0.8954305,2.02906125e-16 2,0 Z M9.1328125,9 L7.9609375,9 L5.6796875,5.2578125 L5.6796875,9 L4.5078125,9 L4.5078125,3.3125 L5.6796875,3.3125 L7.96484375,7.0625 L7.96484375,3.3125 L9.1328125,3.3125 L9.1328125,9 Z M13.578125,6.53515625 L11.328125,6.53515625 L11.328125,8.05859375 L13.96875,8.05859375 L13.96875,9 L10.15625,9 L10.15625,3.3125 L13.9609375,3.3125 L13.9609375,4.26171875 L11.328125,4.26171875 L11.328125,5.6171875 L13.578125,5.6171875 L13.578125,6.53515625 Z M19.0859375,7.359375 L19.8515625,3.3125 L21.0195312,3.3125 L19.7578125,9 L18.578125,9 L17.6523438,5.1953125 L16.7265625,9 L15.546875,9 L14.2851562,3.3125 L15.453125,3.3125 L16.2226562,7.3515625 L17.1601562,3.3125 L18.1523438,3.3125 L19.0859375,7.359375 Z"/>
</svg>
